<?xml version="1.0" encoding="iso-8859-1"?>
<!-- Generator: Adobe Illustrator 19.0.0, SVG Export Plug-In . SVG Version: 6.00 Build 0)  -->
<svg version="1.1" id="Capa_1" xmlns="http://www.w3.org/2000/svg" xmlns:xlink="http://www.w3.org/1999/xlink" x="0px" y="0px"
	 viewBox="0 0 488 488" style="enable-background:new 0 0 488 488;" xml:space="preserve">
<path style="fill:#322153;" d="M468,32h-8v-8c0-4.424-3.576-8-8-8s-8,3.576-8,8v8h-8c-4.424,0-8,3.576-8,8s3.576,8,8,8h8v8
	c0,4.424,3.576,8,8,8s8-3.576,8-8v-8h8c4.424,0,8-3.576,8-8S472.424,32,468,32z"/>
<g>
	<path style="fill:#00F2A9;" d="M84,424c0,17.672,14.328,32,32,32s32-14.328,32-32s-32-64-32-64S84,406.328,84,424z"/>
	<path style="fill:#00F2A9;" d="M276,456c0-17.672-32-64-32-64s-32,46.328-32,64s14.328,32,32,32S276,473.672,276,456z"/>
	<path style="fill:#00F2A9;" d="M372,456c17.672,0,32-14.328,32-32s-32-64-32-64s-32,46.328-32,64S354.328,456,372,456z"/>
	<path style="fill:#00F2A9;" d="M36,80c13.232,0,24-10.768,24-24S49.232,32,36,32S12,42.768,12,56S22.768,80,36,80z M36,48
		c4.416,0,8,3.584,8,8s-3.584,8-8,8s-8-3.584-8-8S31.584,48,36,48z"/>
</g>
<g>
	<path style="fill:#322153;" d="M411.84,131.28c-2.424-37.368-33.72-67.256-71.48-67.208C340.24,64.064,340.128,64,340,64
		c-0.6,0-1.176,0.072-1.768,0.088c-1.208,0.04-2.408,0.088-3.632,0.184c-1.944,0.144-3.856,0.384-5.76,0.68
		C328.56,65,328.28,65,328,65.048C303.336,24.784,259.424,0,212,0C137.008,0,76,61.008,76,136c0,7.952,0.768,16.072,2.28,24.224
		C41.24,163.152,12,194.224,12,232c0,39.704,32.296,72,72,72h320c0.528,0,1.072-0.056,1.592-0.16
		C446.392,295.552,476,258.616,476,216C476,176.472,449.384,141.832,411.84,131.28z M403.168,288H84c-30.872,0-56-25.128-56-56
		s25.128-56,56-56c1,0,1.976,0.096,2.96,0.152l0.76,0.056c0.024,0,0.04-0.016,0.064-0.008C116.896,178.152,140,202.4,140,232
		c0,4.424,3.576,8,8,8s8-3.576,8-8c0-36.032-26.624-65.872-61.216-71.104C92.968,152.488,92,144.136,92,136
		c0-66.168,53.832-120,120-120c40.352,0,77.792,20.368,99.936,53.696C286.136,80.656,268,106.248,268,136c0,4.424,3.576,8,8,8
		s8-3.576,8-8c0-26.032,17.888-47.912,42-54.16l0,0c2.192-0.568,4.368-0.976,6.528-1.288c0.184-0.024,0.368-0.064,0.552-0.08
		c1.632-0.216,3.248-0.296,4.856-0.368C338.624,80.08,339.304,80,340,80c0.008,0,0.024-0.008,0.032-0.008
		c30.896-0.272,55.976,25.152,55.944,56.296c-0.008,0.152-0.056,1.04-0.056,1.184c-0.056,3.848,2.64,7.192,6.416,7.96
		C435.752,152.176,460,181.856,460,216C460,250.2,435.624,281.016,403.168,288z"/>
	<path style="fill:#322153;" d="M156,392c0-19.192-27.832-60.472-33.416-68.544c-3-4.328-10.168-4.328-13.168,0
		C103.832,331.528,76,372.808,76,392c0,22.056,17.944,40,40,40S156,414.056,156,392z M92,392c0-8.736,12.488-31.536,24-49.536
		c11.512,17.992,24,40.792,24,49.536c0,13.232-10.768,24-24,24S92,405.232,92,392z"/>
	<path style="fill:#322153;" d="M244,464c22.056,0,40-17.944,40-40c0-19.192-27.832-60.472-33.416-68.544
		c-3-4.328-10.168-4.328-13.168,0C231.832,363.528,204,404.808,204,424C204,446.056,221.944,464,244,464z M244,374.464
		c11.512,17.992,24,40.792,24,49.536c0,13.232-10.768,24-24,24s-24-10.768-24-24C220,415.264,232.488,392.464,244,374.464z"/>
	<path style="fill:#322153;" d="M412,392c0-19.192-27.832-60.472-33.416-68.544c-3-4.328-10.168-4.328-13.168,0
		C359.832,331.528,332,372.808,332,392c0,22.056,17.944,40,40,40S412,414.056,412,392z M348,392c0-8.736,12.488-31.536,24-49.536
		c11.512,17.992,24,40.792,24,49.536c0,13.232-10.768,24-24,24S348,405.232,348,392z"/>
</g>
<g>
</g>
<g>
</g>
<g>
</g>
<g>
</g>
<g>
</g>
<g>
</g>
<g>
</g>
<g>
</g>
<g>
</g>
<g>
</g>
<g>
</g>
<g>
</g>
<g>
</g>
<g>
</g>
<g>
</g>
</svg>
